<?xml version="1.0" encoding="UTF-8"?>
<svg id="Layer_2" data-name="Layer 2" xmlns="http://www.w3.org/2000/svg" viewBox="0 0 95.52 40.33">
  <defs>
    <style>
      .cls-1 {
        fill: #fff;
      }
    </style>
  </defs>
  <g id="Layer_2-2" data-name="Layer 2">
    <g>
      <path class="cls-1" d="M0,1.26C0,.82.33.46.77.44h9.95c8.34,0,15.18,6.79,15.18,15.09s-6.83,15.18-15.18,15.18H.77c-.44-.02-.79-.38-.77-.82V1.26ZM10.11,26.61c6.35,0,10.98-4.66,10.98-11.07s-4.63-10.98-10.98-10.98h-5.71v22.05h5.71Z"/>
      <path class="cls-1" d="M33.18,1.26c0-.44.35-.81.77-.82h9.95c8.34,0,15.18,6.79,15.18,15.09s-6.83,15.18-15.18,15.18h-9.95c-.44-.02-.79-.38-.77-.82V1.26h0ZM43.29,26.61c6.35,0,10.98-4.66,10.98-11.07s-4.63-10.98-10.98-10.98h-5.7v22.05h5.7Z"/>
      <path class="cls-1" d="M80.01.01c4.37,0,7.52,1.48,10.46,4.02.35.27.4.79.12,1.13-.02.02-.05.06-.07.08l-1.9,1.94c-.3.39-.69.39-1.08,0-2.03-1.77-4.8-2.89-7.48-2.89-6.19,0-10.85,5.19-10.85,11.24s4.71,11.2,10.9,11.2c3.15,0,5.37-1.25,7.44-2.86.39-.3.77-.26,1.04-.05l1.99,1.95c.35.31.26.87-.05,1.17-2.94,2.86-6.66,4.2-10.51,4.2-8.65,0-15.61-6.88-15.61-15.53S71.35.02,79.95,0c.02,0,.04,0,.06.01Z"/>
      <path class="cls-1" d="M63.83,36.17h31.07c.35,0,.62.29.62.62v2.92c0,.35-.29.62-.62.62h-31.07c-.35,0-.62-.29-.62-.62v-2.92c0-.35.27-.62.62-.62Z"/>
    </g>
  </g>
</svg>