<?xml version="1.0" encoding="UTF-8"?>
<svg id="Layer_2" data-name="Layer 2" xmlns="http://www.w3.org/2000/svg" viewBox="0 0 680.03 866.23">
  <g id="Layer_1-2" data-name="Layer 1">
    <path d="M31.48,309.64c-8.64,62.99-29.3,126.23-18.26,188.85,15.69,89,93.34,162.32,91.44,252.67-.56,26.78-6.76,58.17,12.66,76.63,12.05,11.45,30.03,13.33,46.6,14.61,98.45,7.59,196.9,15.18,295.35,22.77,23.36,1.8,48.92,3.02,67.9-10.71,22.95-16.6,27.61-48.68,26.98-77s-4.23-58.35,8.79-83.51c17.11-33.07,57.69-47.46,78.7-78.2,16.48-24.11,18.74-54.86,20.49-84.01,5.79-96.91,11.58-193.82,17.36-290.74,1.79-30.02.5-66.27-25.31-81.7-29.7-17.76-70.97,5.77-101.53-10.48-20.81-11.06-28.86-36.5-32.9-59.71s-6.72-48.39-22.38-66C474.74-2.35,435.42-1.47,401.49,1.43c-54.4,4.64-108.81,9.28-163.21,13.93-26.21,2.24-52.81,4.56-77.43,13.81-21.92,8.24-41.45,21.67-60.73,34.96-25.38,17.5-50.8,34.94-76.14,52.51-29.58,20.51-29.47,24.03-12.27,53.16,26.53,44.93,19.77,90.69,19.77,139.85Z"/>
  </g>
</svg>