<?xml version="1.0" encoding="UTF-8"?>
<svg id="Layer_2" data-name="Layer 2" xmlns="http://www.w3.org/2000/svg" viewBox="0 0 852.6 1000">
  <g id="Layer_1-2" data-name="Layer 1">
    <path d="M173.81,999.04s5.41-20.56,3.01-56.66c-2.41-36.09-15.04-48.13-15.04-48.13,0,0,.49-28.75-18.68-28.42-19.17.33-13.88-36.35-12.89-50.23.99-13.88-16.86-78-33.38-113.36-16.52-35.36-29.41-84.94-32.39-133.19s-.33-73.37,7.27-109.06c7.6-35.69,14.54-63.78,13.88-101.46-.66-37.68-1.98-67.09-10.91-114.35C65.77,196.92,0,174.45,0,174.45c0,0,76.05-21.65,81.82-22.48s4.25,8.21,8.81,10.56c5.5,2.85,18.22,5.88,29.23,3.8,0,0,19.17-2.66,25.81-6.45s-3.61-14.23-6.83-17.46c-3.23-3.23-6.64-6.64-5.69-15.37.95-8.73,13.85-10.44,13.29-23.91-.57-13.48-2.18-29.48.83-42.65,3.01-13.17,14.68-28.98,22.21-25.22s9.03,16.94,74.52,20.7c65.49,3.76,288.21.47,363.73-25.62,75.52-26.09,83.76-40.51,83.07-21.97-.69,18.54,25.71,28.97,31.82,27.39s3.55,8.48,0,17.74c-3.55,9.27-10.09,10.36-9.59,29.98.5,19.62,11.07,27.17,2.52,41.26-8.55,14.09-26.67,32.71-25.16,38.74,1.51,6.04,2.01,13.08,24.15,13.08s121.15-.05,129.43,5.94c8.28,5.98,12.88,65.79,3.22,102.59-9.66,36.8-24.79,82.13-17.42,133.66,7.36,51.53,11.78,154.58-10.31,204.64-22.08,50.05-22.08,107.47-8.83,132.5s-49.47,53.81-49.47,53.81c0,0-51.54,16.97-72.29,42.74-20.74,25.77,60.34,76.69,34.57,78.57-25.77,1.89-42.74,15.71-42.12,23.26.63,7.54,9.43,43,1.89,44.76s-114.09,2.52-196.55-10.79c-82.45-13.31-212.29-16.79-312.83,10.79Z"/>
  </g>
</svg>